<svg xmlns="http://www.w3.org/2000/svg" width="1200" height="750" viewBox="0 0 1200 750">
  <rect width="1200" height="750" fill="#0a0a1a"/>
  <!-- sidebar -->
  <rect x="0" y="0" width="220" height="750" fill="#111127"/>
  <line x1="220" y1="0" x2="220" y2="750" stroke="#2a2a4a"/>
  <text x="24" y="52" font-family="Segoe UI, Arial, sans-serif" font-size="20" font-weight="bold" fill="#00d4aa">RiskMonitor</text>
  <text x="24" y="74" font-family="Segoe UI, Arial, sans-serif" font-size="11" fill="#a7a7b8">by brokerQ.io</text>
  <line x1="16" y1="96" x2="204" y2="96" stroke="#2a2a4a"/>
  
      
      <circle cx="40" cy="154" r="6" fill="#3a3a5a"/>
      <text x="58" y="159" font-family="Segoe UI, Arial, sans-serif" font-size="15" fill="#a7a7b8">Live Book</text>
      
      <circle cx="40" cy="206" r="6" fill="#3a3a5a"/>
      <text x="58" y="211" font-family="Segoe UI, Arial, sans-serif" font-size="15" fill="#a7a7b8">Exposure</text>
      
      <circle cx="40" cy="258" r="6" fill="#3a3a5a"/>
      <text x="58" y="263" font-family="Segoe UI, Arial, sans-serif" font-size="15" fill="#a7a7b8">Alerts</text>
      <rect x="16" y="290" width="188" height="40" rx="8" fill="#00d4aa" opacity="0.12"/>
      <rect x="16" y="290" width="3" height="40" rx="1.5" fill="#00d4aa"/>
      <circle cx="40" cy="310" r="6" fill="#00d4aa"/>
      <text x="58" y="315" font-family="Segoe UI, Arial, sans-serif" font-size="15" fill="#e8e8f0">Hedging</text>
      
      <circle cx="40" cy="362" r="6" fill="#3a3a5a"/>
      <text x="58" y="367" font-family="Segoe UI, Arial, sans-serif" font-size="15" fill="#a7a7b8">P&amp;L</text>
      
      <circle cx="40" cy="414" r="6" fill="#3a3a5a"/>
      <text x="58" y="419" font-family="Segoe UI, Arial, sans-serif" font-size="15" fill="#a7a7b8">Settings</text>
  <!-- topbar -->
  <rect x="220" y="0" width="980" height="64" fill="#111127"/>
  <line x1="220" y1="64" x2="1200" y2="64" stroke="#2a2a4a"/>
  <text x="252" y="40" font-family="Segoe UI, Arial, sans-serif" font-size="17" font-weight="600" fill="#e8e8f0">Hedging Analytics</text>
  <circle cx="1156" cy="32" r="16" fill="#2a2a4a"/>
  <text x="1156" y="37" font-family="Segoe UI, Arial, sans-serif" font-size="13" fill="#00d4aa" text-anchor="middle">D</text>
  <rect x="950" y="18" width="170" height="28" rx="14" fill="#0a0a1a" stroke="#2a2a4a"/>
  <text x="964" y="37" font-family="Segoe UI, Arial, sans-serif" font-size="12" fill="#a7a7b8">Search...</text>
  <rect x="252" y="92" width="420" height="340" rx="12" fill="#111127" stroke="#2a2a4a"/>
  <text x="276" y="122" font-family="Segoe UI, Arial, sans-serif" font-size="14" font-weight="600" fill="#e8e8f0">Book Split</text>
  <path d="M 462.0 172.0 A 100 100 0 0 1 546.4 325.6" fill="none" stroke="#0ea5e9" stroke-width="26"/><path d="M 546.4 325.6 A 100 100 0 1 1 413.8 184.4" fill="none" stroke="#00d4aa" stroke-width="26"/><path d="M 413.8 184.4 A 100 100 0 0 1 462.0 172.0" fill="none" stroke="#fbbf24" stroke-width="26"/>
  <text x="462" y="278" font-family="Segoe UI, Arial, sans-serif" font-size="20" font-weight="bold" fill="#e8e8f0" text-anchor="middle">100%</text>
  <circle cx="282" cy="364" r="5" fill="#0ea5e9"/>
    <text x="296" y="369" font-family="Segoe UI, Arial, sans-serif" font-size="12" fill="#a7a7b8">A-Book — 34%</text><circle cx="282" cy="388" r="5" fill="#00d4aa"/>
    <text x="296" y="393" font-family="Segoe UI, Arial, sans-serif" font-size="12" fill="#a7a7b8">B-Book — 58%</text><circle cx="282" cy="412" r="5" fill="#fbbf24"/>
    <text x="296" y="417" font-family="Segoe UI, Arial, sans-serif" font-size="12" fill="#a7a7b8">Hedged — 8%</text>
  <rect x="696" y="92" width="472" height="340" rx="12" fill="#111127" stroke="#2a2a4a"/>
  <text x="720" y="122" font-family="Segoe UI, Arial, sans-serif" font-size="14" font-weight="600" fill="#e8e8f0">Hedge Effectiveness</text>
  <line x1="720" y1="142" x2="1144" y2="142" stroke="#2a2a4a" stroke-dasharray="4 6" opacity="0.6"/><line x1="720" y1="227" x2="1144" y2="227" stroke="#2a2a4a" stroke-dasharray="4 6" opacity="0.6"/><line x1="720" y1="312" x2="1144" y2="312" stroke="#2a2a4a" stroke-dasharray="4 6" opacity="0.6"/><line x1="720" y1="397" x2="1144" y2="397" stroke="#2a2a4a" stroke-dasharray="4 6" opacity="0.6"/>
  <path d="M 720 402 L 720.0 296.4 L 735.7 310.2 L 751.4 305.8 L 767.1 320.0 L 782.8 330.0 L 798.5 354.5 L 814.2 348.5 L 829.9 356.5 L 845.6 363.2 L 861.3 367.2 L 877.0 376.6 L 892.7 371.7 L 908.4 359.2 L 924.1 335.5 L 939.9 309.7 L 955.6 329.1 L 971.3 304.8 L 987.0 308.0 L 1002.7 330.0 L 1018.4 319.0 L 1034.1 292.0 L 1049.8 275.5 L 1065.5 280.4 L 1081.2 297.5 L 1096.9 294.2 L 1112.6 266.1 L 1128.3 289.8 L 1144.0 262.5 L 1144 402 Z" fill="#00d4aa" opacity="0.12"/>
  <polyline points="720.0,296.4 735.7,310.2 751.4,305.8 767.1,320.0 782.8,330.0 798.5,354.5 814.2,348.5 829.9,356.5 845.6,363.2 861.3,367.2 877.0,376.6 892.7,371.7 908.4,359.2 924.1,335.5 939.9,309.7 955.6,329.1 971.3,304.8 987.0,308.0 1002.7,330.0 1018.4,319.0 1034.1,292.0 1049.8,275.5 1065.5,280.4 1081.2,297.5 1096.9,294.2 1112.6,266.1 1128.3,289.8 1144.0,262.5" fill="none" stroke="#00d4aa" stroke-width="2.5" stroke-linejoin="round"/>
      <rect x="252" y="456" width="211" height="110" rx="12" fill="#111127" stroke="#2a2a4a"/>
      <text x="272" y="490" font-family="Segoe UI, Arial, sans-serif" font-size="12" fill="#a7a7b8">HEDGED VOLUME</text>
      <text x="272" y="526" font-family="Segoe UI, Arial, sans-serif" font-size="26" font-weight="bold" fill="#e8e8f0">1,204 lots</text>
      <text x="272" y="550" font-family="Segoe UI, Arial, sans-serif" font-size="12" fill="#00d4aa">▲ 12% today</text>
      <rect x="487" y="456" width="211" height="110" rx="12" fill="#111127" stroke="#2a2a4a"/>
      <text x="507" y="490" font-family="Segoe UI, Arial, sans-serif" font-size="12" fill="#a7a7b8">LP SLIPPAGE AVG</text>
      <text x="507" y="526" font-family="Segoe UI, Arial, sans-serif" font-size="26" font-weight="bold" fill="#e8e8f0">0.21 pips</text>
      <text x="507" y="550" font-family="Segoe UI, Arial, sans-serif" font-size="12" fill="#00d4aa">▲ 0.04</text>
      <rect x="722" y="456" width="211" height="110" rx="12" fill="#111127" stroke="#2a2a4a"/>
      <text x="742" y="490" font-family="Segoe UI, Arial, sans-serif" font-size="12" fill="#a7a7b8">B-BOOK P&amp;L (MTD)</text>
      <text x="742" y="526" font-family="Segoe UI, Arial, sans-serif" font-size="26" font-weight="bold" fill="#e8e8f0">$412,080</text>
      <text x="742" y="550" font-family="Segoe UI, Arial, sans-serif" font-size="12" fill="#00d4aa">▲ 6.8%</text>
      <rect x="957" y="456" width="211" height="110" rx="12" fill="#111127" stroke="#2a2a4a"/>
      <text x="977" y="490" font-family="Segoe UI, Arial, sans-serif" font-size="12" fill="#a7a7b8">REJECTED ORDERS</text>
      <text x="977" y="526" font-family="Segoe UI, Arial, sans-serif" font-size="26" font-weight="bold" fill="#e8e8f0">0.4%</text>
      <text x="977" y="550" font-family="Segoe UI, Arial, sans-serif" font-size="12" fill="#f87171">▼ 0.1%</text></svg>